<?xml version="1.0" standalone="no"?><!DOCTYPE svg PUBLIC "-//W3C//DTD SVG 1.1//EN" "http://www.w3.org/Graphics/SVG/1.1/DTD/svg11.dtd">
<svg t="1724128455906" class="icon" viewBox="0 0 1024 1024" version="1.1" xmlns="http://www.w3.org/2000/svg"
     p-id="15422"
     width="200" height="200"><path d="M515.4 839.2c-38.3 0-103.3-45.1-138.7-72-55-41.9-110.6-94.4-144.9-137.1-13.8-17.1-20.7-34.7-20.7-52.4V215h7c46.6 0 84.5-37.9 84.5-84.5v-7H726v7c0 46.6 37.8 84.4 84.4 84.5h0.3c0.5-0.1 1.1-0.2 1.9-0.2l7.2-0.2v363.1c0 17.6-7 35.3-20.7 52.4-33.3 41.4-89 93.7-145.4 136.4-36 27.1-101.6 72.7-138.3 72.7zM225.1 228.7v348.9c0 14.4 5.9 29.1 17.7 43.6 33.7 41.9 88.3 93.5 142.5 134.8 56.9 43.3 105.6 69.2 130.2 69.2 23.4 0 71.9-26.2 129.7-70 55.5-42.1 110.3-93.4 142.9-134 11.7-14.6 17.7-29.2 17.7-43.6V228.9c-49.8-2.4-90-41.9-93.5-91.4h-396c-3.4 48.7-42.5 87.8-91.2 91.2z" fill="#0F13AE" p-id="15423"></path><path d="M643.6 889.5l-7.8-11.6c86-57.4 184-144.6 238.2-212 15.7-19.5 23.6-39.1 23.6-58.5V288.6h14v318.8c0 22.6-9 45.2-26.7 67.2C830 743 730.7 831.3 643.6 889.5zM381 886.7c-84.6-57.2-179.1-142.5-235.1-212.1-17.7-22-26.7-44.6-26.7-67.2V288.6h14v318.8c0 19.3 7.9 39 23.6 58.5 55.2 68.6 148.5 152.7 232 209.3l-7.8 11.5z" fill="#49A3FE" p-id="15424"></path><path d="M723.5 283.9v154h-208v-208h143.4c4.5 30.8 31 54.2 63 54.2 0.5-0.1 1.1-0.2 1.6-0.2z" fill="#B6F5FF" p-id="15425"></path><path d="M730.5 444.8h-222v-222h156.4l0.9 6c4.1 27.5 28.1 48.2 56 48.2h0.2c0.4 0 0.9-0.1 1.5-0.1h7v167.9z m-208.1-14h194v-140c-15.1-1.1-29.6-7.1-41.1-17.1-11.2-9.7-19-22.7-22.4-36.9H522.4v194z" fill="#0F13AE" p-id="15426"></path><path d="M522.4 444.8h-222V277h7c28 0 52.2-20.7 56.2-48.2l0.9-6h157.9v222z m-208-14h194v-194H376.3c-3.4 14.3-11.2 27.2-22.5 36.9-11.1 9.6-24.9 15.5-39.5 16.9v140.2z" fill="#0F13AE" p-id="15427"></path><path d="M515.4 437.8V711c-40.3 0-145.5-83.6-194.6-144.5-8.1-10-13.5-21.3-13.5-33.7v-94.9h208.1z" fill="#B6F5FF" p-id="15428"></path><path d="M522.4 718h-7c-27.4 0-73.3-31.9-98.3-50.8-38.6-29.4-77.6-66.3-101.8-96.3-10-12.3-15-25.1-15-38.1v-102h222V718z m-208-273.2v87.9c0 9.6 4 19.5 11.9 29.3 45.1 56 140.3 132.5 182.1 141.1V444.8h-194z" fill="#0F13AE" p-id="15429"></path><path d="M515.4 718h-7V430.8h222v101.9c0 12.9-5.1 25.7-15.1 38.1-23.3 29-62.4 65.7-102 95.7-25.3 19.3-71.6 51.5-97.9 51.5z m7-273.2V703c39-9 135.2-82.5 182.1-141 7.9-9.8 12-19.6 12-29.3v-87.9H522.4z" fill="#0F13AE" p-id="15430"></path><path d="M437.6 184v-14.5" fill="#B6F5FF" p-id="15431"></path><path d="M430.6 169.5h14V184h-14z" fill="#0F13AE" p-id="15432"></path><path d="M590.8 184v-14.5" fill="#B6F5FF" p-id="15433"></path><path d="M583.8 169.5h14V184h-14z" fill="#0F13AE" p-id="15434"></path><path d="M272.8 441.9h-14.5" fill="#B6F5FF" p-id="15435"></path><path d="M258.3 434.9h14.5v14h-14.5z" fill="#0F13AE" p-id="15436"></path><path d="M272.8 288.7h-14.5" fill="#B6F5FF" p-id="15437"></path><path d="M258.3 281.7h14.5v14h-14.5z" fill="#0F13AE" p-id="15438"></path><path d="M776.5 441.9h-14.4" fill="#B6F5FF" p-id="15439"></path><path d="M762.1 434.9h14.5v14h-14.5z" fill="#0F13AE" p-id="15440"></path><path d="M776.5 288.7h-14.4" fill="#B6F5FF" p-id="15441"></path><path d="M762.1 281.7h14.5v14h-14.5z" fill="#0F13AE" p-id="15442"></path><path d="M620.9 718.8l-9.3-11.1" fill="#B6F5FF" p-id="15443"></path><path d="M606.162 712.282l10.664-9.07 9.395 11.044-10.664 9.07z" fill="#0F13AE" p-id="15444"></path><path d="M737.7 619.5l-9.4-11" fill="#B6F5FF" p-id="15445"></path><path d="M722.935 612.942l10.664-9.07 9.394 11.044-10.664 9.07z" fill="#0F13AE" p-id="15446"></path><path d="M405.9 718.8l9.3-11.1" fill="#B6F5FF" p-id="15447"></path><path d="M400.535 714.29l9.395-11.045 10.664 9.07-9.395 11.045z" fill="#0F13AE" p-id="15448"></path><path d="M289.1 619.5l9.4-11" fill="#B6F5FF" p-id="15449"></path><path d="M283.817 614.967l9.395-11.044 10.663 9.07-9.394 11.045z" fill="#0F13AE" p-id="15450"></path></svg>